- 
http://www.Speed.Cd 
       
http://www.Speed.Cd      fast  and The Hottest Private Tracker on the net

(((--Registration will be open on june every weekend--)))

Please Seed back to make the speed Faster!!!

------------------nfo--------------------------
-                                                                                                     
       
     
     
       
       
     
     
                                         
                                         
                EXVID                    
                                         
         
                                         
         Filled the Archives             
                                         
         
                                         
                With:                    
                                         
         
                                         
                                    
     E240                           
                                    
     SP               (C) 2009      
                                         
     
     
     
                                                                                  
                                                                                   
   The.Last.of.the.Mohicans.1992.Directors.Definitive.Cut.BDRip.XviD-EXViD          
                                                                                   
                                                                                  
     
                                                                                               
EXViD aims to iNTERNAL those releases which have been lost in the archives.
EXViD aims to PRE non-internal releases which have poor sources and are likely skipped by others.
 
http://www.imdb.com/title/tt0104691/
Subtitles: EN HI, ES, FR
Date: 2011.08

Director: Michael Mann

Genres: Adventure | Romance | War

Plot:
British and French troops do battle in colonial America, with aid from various native American
war parties. The British troops enlist the help of local colonial militia men, who are reluctant
to leave their homes undefended. A budding romance between a British officer's daughter and an
independent man who was reared as a Mohican complicates things for the British officer, as the
adopted Mohican pursues his own agenda despite the wrath of different people on both sides of
the conflict. 

Cast:
Daniel Day-Lewis 	 ... 	Hawkeye (Nathaniel Poe) 
Madeleine Stowe 	 ... 	Cora Munro 
Russell Means 	 ... 	Chingachgook 
Eric Schweig 	 ... 	Uncas 
Jodhi May 	 ... 	Alice Munro 
Steven Waddington 	 ... 	Maj. Duncan Heyward 
Wes Studi 	 ... 	Magua 
Maurice Roves 	 ... 	Col. Edmund Munro 
Patrice Chreau 	 ... 	 Gen Montcalm 
Edward Blatchford 	 ... 	 Jack Winthrop 
Terry Kinney 	 ... 	 John Cameron 
Tracey Ellis 	 ... 	 Alexandra Cameron 
Justin M. Rice 	 ... 	 James Cameron 
Dennis Banks 	 ... 	 Ongewasgone 
Pete Postlethwaite 	 ... 	 Capt. Beams

Stats:
Format                           : AVI
Format/Info                      : Audio Video Interleave
File size                        : 701 MiB
Duration                         : 1h 54mn
Overall bit rate                 : 855 Kbps
Writing application              : Nandub v1.0rc2
Writing library                  : Nandub build 1852/release

Video
ID                               : 0
Format                           : MPEG-4 Visual
Format profile                   : Advanced Simple@L5
Format settings, BVOP            : 2
Format settings, QPel            : No
Format settings, GMC             : No warppoints
Format settings, Matrix          : Default (H.263)
Codec ID                         : XVID
Codec ID/Hint                    : XviD
Duration                         : 1h 54mn
Bit rate                         : 721 Kbps
Width                            : 624 pixels
Height                           : 256 pixels
Display aspect ratio             : 2.40:1
Frame rate                       : 23.976 fps
Color space                      : YUV
Chroma subsampling               : 4:2:0
Bit depth                        : 8 bits
Scan type                        : Progressive
Compression mode                 : Lossy
Bits/(Pixel*Frame)               : 0.188
Stream size                      : 591 MiB (84%)
Writing library                  : XviD 64

Audio
ID                               : 1
Format                           : MPEG Audio
Format version                   : Version 1
Format profile                   : Layer 3
Mode                             : Joint stereo
Mode extension                   : MS Stereo
Codec ID                         : 55
Codec ID/Hint                    : MP3
Duration                         : 1h 54mn
Bit rate mode                    : Variable
Bit rate                         : 121 Kbps
Nominal bit rate                 : 128 Kbps
Channel(s)                       : 2 channels
Sampling rate                    : 48.0 KHz
Compression mode                 : Lossy
Stream size                      : 99.4 MiB (14%)
Alignment                        : Aligned on interleaves
Interleave, duration             : 24 ms (0.58 video frame)
Interleave, preload duration     : 145 ms
Writing library                  : LAME3.98r
Encoding settings                : -m j -V 4 -q 3 -lowpass 17 --abr 128




Release notes:
This is the Blu-ray exclusive Director's Definitive Cut.

enjoy!

Looking for:
75TB+ Archives
DUTCH/FLEMiSH Archives
                                                                                                    
Greets: CRBS EPiSODE FiCO FLS iLS KLASSiGER LiPSYNC MADE NODLABS RUNNER SPRiNTER      
   

                                                                    ASCII DONE BY XX^NFO 2oo9